:SAMPLES-PER-SECOND 30
:FULLY-SPECIFIED
:DEGREES
417
root  -53.1968 39.1855 -2.62882 -5.09418 -38.2955 9.18909
RightUpLeg  -18.7605 3.37435 -19.9478
RightLeg  22.0445 11.2719 4.7858
RightFoot  -6.38741 -0.445337 9.26934
RightToes  -1.33073e-015 0 -3.6325e-017
Spine  17.3609 -0.652663 17.1214
Spine1  5.51098 3.21982 -7.00968
HEad  -7.81313 -7.66244 -9.11452
LeftShoulder1  0.0561028 3.35203 -30.8476
LeftArm  2.98756 10.9835 -40.1091
LeftForeArm  28.9475 -41.1074 -7.88338
LeftHand  -0.0651047 4.1964 4.4272
RightShoulder  -0.409395 -4.84904 23.5274
RightArm  -16.3609 30.8821 11.8934
RightForeArm  -4.79808 42.536 10.586
RightHand  -1.87993 18.3674 -9.59061
LeftUpLeg  -19.7582 -13.6804 -6.16587
LeftLeg  25.7693 -6.11079 -2.88342
LeftFoot  -3.52778 -0.0232122 0.641011
LeftToes  -1.63346e-009 7.54925e-011 9.86887e-012
418
root  -53.7586 39.523 -2.96724 -4.19989 -34.4485 9.24219
RightUpLeg  -16.9879 0.318499 -19.3767
RightLeg  20.1285 10.5237 3.95924
RightFoot  -5.76279 -0.461084 8.641
RightToes  -1.33073e-015 0 -3.6325e-017
Spine  16.231 -0.707302 16.5606
Spine1  5.41355 2.81921 -6.70948
HEad  -8.16353 -3.93414 -9.09549
LeftShoulder1  0.0349887 3.41009 -31.115
LeftArm  4.38982 12.1022 -39.6689
LeftForeArm  29.4386 -38.667 -7.12234
LeftHand  -0.0373161 4.781 2.31342
RightShoulder  -0.466516 -4.96988 24.9626
RightArm  -13.7061 25.4004 14.1812
RightForeArm  -0.949957 50.1533 13.571
RightHand  -1.97317 17.4529 -10.4064
LeftUpLeg  -18.6263 -8.48608 -7.10286
LeftLeg  23.9781 -3.12861 -1.17839
LeftFoot  -3.2192 0.044325 -0.354288
LeftToes  -1.63346e-009 7.54925e-011 9.86887e-012
419
root  -54.2493 39.8138 -3.26374 -3.46539 -30.2458 9.06866
RightUpLeg  -14.903 -4.29049 -18.5265
RightLeg  18.2963 11.0554 3.24497
RightFoot  -5.14352 -0.471971 8.05799
RightToes  -1.33073e-015 0 -3.6325e-017
Spine  15.0481 -0.698814 16.0714
Spine1  5.58271 2.46034 -6.11798
HEad  -8.08017 0.200721 -10.0103
LeftShoulder1  -0.00167859 3.50748 -31.0417
LeftArm  6.28041 12.7359 -39.8757
LeftForeArm  29.0766 -35.7979 -6.35437
LeftHand  -0.0272295 5.3236 0.366494
RightShoulder  -0.554919 -5.2009 25.9249
RightArm  -11.0576 19.8746 16.5686
RightForeArm  3.40408 56.9677 17.2846
RightHand  -1.74554 17.2464 -9.35165
LeftUpLeg  -17.5704 -2.61146 -7.9004
LeftLeg  23.8441 -1.75203 -0.512653
LeftFoot  -3.81512 0.0253487 -0.0516435
LeftToes  -1.63346e-009 7.54925e-011 9.86887e-012
420
root  -54.7207 40.0501 -3.50865 -2.74402 -25.8739 8.71039
RightUpLeg  -12.7662 -9.53277 -17.6218
RightLeg  16.5333 11.9958 2.63234
RightFoot  -4.76061 -0.46629 7.53158
RightToes  -1.33073e-015 0 -3.6325e-017
Spine  13.906 -0.622309 15.694
Spine1  5.61512 2.19502 -5.47858
HEad  -6.32623 7.0517 -15.0382
LeftShoulder1  -0.123851 3.83117 -31.7479
LeftArm  8.12909 12.955 -39.6634
LeftForeArm  28.7374 -32.5472 -5.54409
LeftHand  -0.031151 5.6198 -0.287441
RightShoulder  -0.658442 -5.46586 26.8739
RightArm  -7.62469 14.5237 18.5118
RightForeArm  8.81687 62.9532 21.9926
RightHand  -1.61838 16.7453 -8.88833
LeftUpLeg  -16.5639 2.40306 -8.08727
LeftLeg  24.4159 -0.307155 0.184838
LeftFoot  -4.14482 0.0566035 -0.532041
LeftToes  -1.63346e-009 7.54925e-011 9.86887e-012
421
root  -55.1162 40.2046 -3.7112 -1.58209 -21.2836 8.39246
RightUpLeg  -11.3672 -13.3691 -17.2191
RightLeg  15.2254 11.2316 2.13575
RightFoot  -4.78845 -0.460554 7.46316
RightToes  -1.33073e-015 0 -3.6325e-017
Spine  12.5498 -0.50289 15.6617
Spine1  5.01107 2.07458 -5.41698
HEad  -4.83275 14.4429 -20.7579
LeftShoulder1  -0.201703 4.03492 -31.8615
LeftArm  9.37068 13.736 -39.8242
LeftForeArm  26.8516 -29.5219 -4.93061
LeftHand  -0.0440442 6.82424 -0.449461
RightShoulder  -0.75792 -5.6914 27.9938
RightArm  -4.17249 9.19823 20.636
RightForeArm  15.9267 67.7253 27.4408
RightHand  -1.4792 16.2845 -8.33246
LeftUpLeg  -16.3469 5.88368 -7.84702
LeftLeg  25.5585 0.762674 0.729696
LeftFoot  -4.43961 0.0703991 -0.743205
LeftToes  -1.63346e-009 7.54925e-011 9.86887e-012
422
root  -55.4318 40.2862 -3.90398 -0.0997925 -16.4748 8.06671
RightUpLeg  -10.6201 -15.9137 -17.064
RightLeg  14.5361 8.78688 1.9418
RightFoot  -5.01398 -0.441652 7.3617
RightToes  -1.33073e-015 0 -3.6325e-017
Spine  10.7106 -0.259859 16.0057
Spine1  4.73332 2.21161 -6.00817
HEad  -5.19164 18.8636 -23.8041
LeftShoulder1  -0.208328 4.0544 -31.7327
LeftArm  9.87432 14.5595 -39.8987
LeftForeArm  24.799 -27.1232 -4.50058
LeftHand  -0.0295535 6.82131 0.0773319
RightShoulder  -0.912817 -6.04554 29.3308
RightArm  -1.35341 4.4524 22.9963
RightForeArm  23.3936 71.0567 32.9959
RightHand  -1.58238 15.8754 -9.04041
LeftUpLeg  -16.9494 9.30469 -7.33766
LeftLeg  26.9573 0.471548 0.598552
LeftFoot  -4.55425 0.0198564 0.0437564
LeftToes  -1.63346e-009 7.54925e-011 9.86887e-012
423
root  -55.7219 40.3673 -4.06178 1.10809 -11.3102 7.63312
RightUpLeg  -9.31369 -17.2953 -16.9625
RightLeg  13.6454 4.99614 1.61672
RightFoot  -5.08134 -0.434534 7.30267
RightToes  -1.33073e-015 0 -3.6325e-017
Spine  9.26065 0.0514734 15.9395
Spine1  4.53312 2.26691 -5.74453
HEad  -6.53685 20.7714 -24.4339
LeftShoulder1  -0.259313 4.18037 -32.1082
LeftArm  10.5343 15.2389 -39.68
LeftForeArm  22.9922 -25.3475 -4.2109
LeftHand  -0.00475813 8.35466 1.4699
RightShoulder  -1.00579 -6.25419 30.0181
RightArm  0.821987 -0.00999864 25.7785
RightForeArm  31.0339 73.3664 38.1285
RightHand  -1.64219 15.3009 -9.59759
LeftUpLeg  -17.1649 11.0577 -6.43941
LeftLeg  27.3859 0.510708 0.623698
LeftFoot  -4.45708 0.00395606 0.290925
LeftToes  -1.63346e-009 7.54925e-011 9.86887e-012
424
root  -55.8656 40.403 -4.22315 2.75305 -6.41187 7.77344
RightUpLeg  -9.06956 -18.3521 -17.3949
RightLeg  13.2412 0.950318 1.52875
RightFoot  -5.14853 -0.430529 7.30075
RightToes  -1.33073e-015 0 -3.6325e-017
Spine  7.42231 0.607937 15.1755
Spine1  4.5074 2.40774 -5.18071
HEad  -7.9566 22.7689 -24.9927
LeftShoulder1  -0.404018 4.53069 -33.2425
LeftArm  10.2527 15.2546 -38.8434
LeftForeArm  21.2028 -23.6503 -3.95128
LeftHand  -0.0316997 6.53026 0.463967
RightShoulder  -0.961517 -6.15858 29.6561
RightArm  2.78426 -3.67305 29.3574
RightForeArm  35.9955 74.3292 40.5429
RightHand  -1.46676 15.0694 -8.72616
LeftUpLeg  -17.8878 12.2584 -6.29704
LeftLeg  26.2449 0.740836 0.730969
LeftFoot  -4.30965 0.0265576 -0.0613411
LeftToes  -1.63346e-009 7.54925e-011 9.86887e-012
425
root  -55.9928 40.4739 -4.33275 3.7113 -1.17291 7.61273
RightUpLeg  -7.35597 -18.5602 -17.6748
RightLeg  11.9263 -4.05943 1.34619
RightFoot  -4.93569 -0.451584 7.4536
RightToes  -1.33073e-015 0 -3.6325e-017
Spine  6.75245 0.72352 15.0547
Spine1  3.78551 2.53227 -5.83426
HEad  -8.81004 24.1886 -24.8978
LeftShoulder1  -0.482677 4.73686 -32.9861
LeftArm  9.60934 16.2802 -38.7372
LeftForeArm  20.7578 -23.0061 -3.96601
LeftHand  -0.0380445 6.90538 0.142742
RightShoulder  -1.02066 -6.27451 30.2725
RightArm  4.77772 -6.12121 32.1893
RightForeArm  38.3661 74.608 41.0641
RightHand  -1.45426 14.8652 -8.70912
LeftUpLeg  -17.6561 14.5015 -5.74533
LeftLeg  23.8788 0.600564 0.626305
LeftFoot  -4.2395 0.0481678 -0.398957
LeftToes  -1.63346e-009 7.54925e-011 9.86887e-012
426
root  -56.1308 40.5782 -4.39691 3.82471 4.51056 7.04266
RightUpLeg  -4.26813 -17.9987 -17.5719
RightLeg  9.99283 -9.77375 1.17338
RightFoot  -4.24378 -0.515083 7.82791
RightToes  -1.33073e-015 0 -3.6325e-017
Spine  6.67013 0.961008 15.0892
Spine1  3.59238 2.86509 -6.22763
HEad  -9.31493 24.0602 -24.6524
LeftShoulder1  -0.39985 4.53767 -32.5581
LeftArm  9.09713 16.645 -39.0005
LeftForeArm  20.9303 -22.1029 -4.06321
LeftHand  -0.0583563 7.765 -0.154171
RightShoulder  -1.17896 -6.65434 30.9026
RightArm  5.74955 -8.2581 34.3752
RightForeArm  42.2819 75.1074 42.1338
RightHand  -1.0589 14.1367 -6.71993
LeftUpLeg  -16.5503 17.6891 -4.64982
LeftLeg  20.7014 0.549571 0.554305
LeftFoot  -4.05513 0.0571232 -0.540333
LeftToes  -1.63346e-009 7.54925e-011 9.86887e-012
427
root  -56.1955 40.6327 -4.40608 3.90619 10.3641 6.5979
RightUpLeg  -1.30239 -17.5962 -17.3388
RightLeg  8.28539 -15.5877 1.0596
RightFoot  -3.7614 -0.573248 8.24953
RightToes  -1.33073e-015 0 -3.6325e-017
Spine  6.67187 1.10759 14.2515
Spine1  3.33286 2.86739 -5.6667
HEad  -9.77817 23.8596 -24.2478
LeftShoulder1  -0.451345 4.66146 -32.7459
LeftArm  9.20628 17.176 -38.6315
LeftForeArm  20.9749 -21.9639 -4.10155
LeftHand  -0.0589919 7.78265 -0.438896
RightShoulder  -1.22124 -6.75474 31.0457
RightArm  6.89321 -9.96927 36.378
RightForeArm  44.415 75.557 43.6818
RightHand  -1.23449 14.4091 -7.64269
LeftUpLeg  -15.7576 20.981 -4.00064
LeftLeg  17.5209 1.98056 1.01147
LeftFoot  -3.82672 0.026424 -0.0655381
LeftToes  -1.63346e-009 7.54925e-011 9.86887e-012
